<!DOCTYPE svg PUBLIC "-//W3C//DTD SVG 1.1//EN" "http://www.w3.org/Graphics/SVG/1.1/DTD/svg11.dtd">
<!-- Uploaded to: SVG Repo, www.svgrepo.com, Transformed by: SVG Repo Mixer Tools -->
<svg width="800px" height="800px" viewBox="0 0 20 20" xmlns="http://www.w3.org/2000/svg" fill="#000000">
<g id="SVGRepo_bgCarrier" stroke-width="0"/>
<g id="SVGRepo_tracerCarrier" stroke-linecap="round" stroke-linejoin="round"/>
<g id="SVGRepo_iconCarrier">
<path d="M5.116 5.407a2.5 2.5 0 10-1.916.575l.788 2.624a5.5 5.5 0 107.406 7.406l2.624.787a2.5 2.5 0 10.575-1.915l-2.625-.788a5.474 5.474 0 00-.936-3.714l4.554-4.554a2.5 2.5 0 10-1.414-1.414L9.618 8.968a5.475 5.475 0 00-3.714-.936l-.788-2.625zM10 13.5a3.5 3.5 0 11-7 0 3.5 3.5 0 017 0z" fill="#fafafa"/>
</g>
</svg>