<svg width="2470" height="320" viewBox="0 0 2470 320" fill="none" xmlns="http://www.w3.org/2000/svg">
<path d="M163.636 143.344C162.145 138.159 160.05 133.578 157.351 129.601C154.652 125.553 151.349 122.143 147.443 119.374C143.608 116.533 139.205 114.366 134.233 112.875C129.332 111.384 123.899 110.638 117.933 110.638C106.783 110.638 96.9815 113.408 88.5298 118.947C80.1491 124.487 73.6151 132.548 68.9276 143.131C64.2401 153.642 61.8963 166.497 61.8963 181.696C61.8963 196.895 64.2045 209.821 68.821 220.474C73.4375 231.128 79.9716 239.26 88.4233 244.871C96.875 250.411 106.854 253.18 118.359 253.18C128.8 253.18 137.713 251.334 145.099 247.641C152.557 243.876 158.239 238.585 162.145 231.767C166.122 224.949 168.111 216.888 168.111 207.584L177.486 208.969H121.236V174.239H212.536V201.724C212.536 220.901 208.487 237.378 200.391 251.156C192.294 264.864 181.143 275.446 166.939 282.903C152.734 290.29 136.47 293.983 118.146 293.983C97.6918 293.983 79.723 289.473 64.2401 280.453C48.7571 271.362 36.6832 258.472 28.0185 241.781C19.4247 225.02 15.1278 205.134 15.1278 182.122C15.1278 164.437 17.6847 148.67 22.7983 134.821C27.983 120.901 35.2273 109.111 44.5312 99.4517C53.8352 89.7926 64.6662 82.4418 77.0241 77.3991C89.3821 72.3565 102.77 69.8352 117.188 69.8352C129.545 69.8352 141.051 71.6463 151.705 75.2685C162.358 78.8196 171.804 83.8622 180.043 90.3963C188.352 96.9304 195.135 104.707 200.391 113.727C205.646 122.676 209.02 132.548 210.511 143.344H163.636ZM247.186 291V72.8182H333.265C349.743 72.8182 363.805 75.7656 375.453 81.6605C387.172 87.4844 396.085 95.7585 402.193 106.483C408.372 117.136 411.461 129.672 411.461 144.089C411.461 158.578 408.336 171.043 402.086 181.483C395.836 191.852 386.781 199.807 374.92 205.347C363.13 210.886 348.855 213.656 332.093 213.656H274.458V176.582H324.636C333.443 176.582 340.758 175.375 346.582 172.96C352.406 170.545 356.738 166.923 359.579 162.094C362.491 157.264 363.947 151.263 363.947 144.089C363.947 136.845 362.491 130.737 359.579 125.766C356.738 120.794 352.37 117.03 346.476 114.473C340.652 111.845 333.301 110.531 324.423 110.531H293.315V291H247.186ZM365.012 191.71L419.238 291H368.315L315.261 191.71H365.012ZM490.19 72.8182V291H444.061V72.8182H490.19ZM605.487 291H528.143V72.8182H606.126C628.072 72.8182 646.964 77.1861 662.802 85.9219C678.64 94.5866 690.82 107.051 699.343 123.315C707.937 139.58 712.234 159.04 712.234 181.696C712.234 204.423 707.937 223.955 699.343 240.29C690.82 256.625 678.569 269.161 662.589 277.896C646.68 286.632 627.646 291 605.487 291ZM574.272 251.476H603.569C617.205 251.476 628.675 249.061 637.979 244.232C647.354 239.331 654.386 231.767 659.073 221.54C663.832 211.241 666.211 197.96 666.211 181.696C666.211 165.574 663.832 152.399 659.073 142.172C654.386 131.945 647.39 124.416 638.086 119.587C628.782 114.757 617.312 112.342 603.675 112.342H574.272V251.476Z" fill="white" fill-opacity="0.1"/>
<path d="M754.963 291V72.8182H841.043C857.52 72.8182 871.582 75.7656 883.23 81.6605C894.949 87.4844 903.862 95.7585 909.97 106.483C916.149 117.136 919.239 129.672 919.239 144.089C919.239 158.578 916.114 171.043 909.864 181.483C903.614 191.852 894.558 199.807 882.697 205.347C870.908 210.886 856.632 213.656 839.871 213.656H782.236V176.582H832.413C841.22 176.582 848.536 175.375 854.359 172.96C860.183 170.545 864.516 166.923 867.357 162.094C870.268 157.264 871.724 151.263 871.724 144.089C871.724 136.845 870.268 130.737 867.357 125.766C864.516 120.794 860.148 117.03 854.253 114.473C848.429 111.845 841.078 110.531 832.2 110.531H801.092V291H754.963ZM872.79 191.71L927.016 291H876.092L823.038 191.71H872.79ZM951.838 291V72.8182H1098.86V110.851H997.967V162.839H1091.29V200.872H997.967V252.967H1099.28V291H951.838ZM1135.53 291V72.8182H1221.61C1238.16 72.8182 1252.26 75.9787 1263.9 82.2997C1275.55 88.5497 1284.43 97.25 1290.54 108.401C1296.72 119.48 1299.81 132.264 1299.81 146.753C1299.81 161.241 1296.68 174.026 1290.43 185.105C1284.18 196.185 1275.12 204.814 1263.26 210.993C1251.47 217.172 1237.2 220.261 1220.44 220.261H1165.57V183.294H1212.98C1221.86 183.294 1229.17 181.767 1234.93 178.713C1240.75 175.588 1245.08 171.291 1247.92 165.822C1250.83 160.283 1252.29 153.926 1252.29 146.753C1252.29 139.509 1250.83 133.187 1247.92 127.79C1245.08 122.321 1240.75 118.095 1234.93 115.112C1229.1 112.058 1221.72 110.531 1212.77 110.531H1181.66V291H1135.53ZM1464.53 72.8182H1510.66V214.509C1510.66 230.418 1506.86 244.338 1499.26 256.27C1491.74 268.202 1481.19 277.506 1467.62 284.182C1454.06 290.787 1438.25 294.089 1420.22 294.089C1402.1 294.089 1386.27 290.787 1372.7 284.182C1359.14 277.506 1348.59 268.202 1341.06 256.27C1333.53 244.338 1329.77 230.418 1329.77 214.509V72.8182H1375.9V210.567C1375.9 218.876 1377.71 226.263 1381.33 232.726C1385.02 239.189 1390.21 244.267 1396.88 247.96C1403.56 251.653 1411.34 253.5 1420.22 253.5C1429.16 253.5 1436.94 251.653 1443.55 247.96C1450.22 244.267 1455.37 239.189 1458.99 232.726C1462.69 226.263 1464.53 218.876 1464.53 210.567V72.8182ZM1540.31 110.851V72.8182H1719.5V110.851H1652.7V291H1607.1V110.851H1540.31ZM1759.95 291H1710.52L1785.84 72.8182H1845.29L1920.5 291H1871.07L1816.42 122.676H1814.71L1759.95 291ZM1756.86 205.24H1873.62V241.249H1756.86V205.24ZM1911.79 110.851V72.8182H2090.98V110.851H2024.18V291H1978.59V110.851H1911.79ZM2166.62 72.8182V291H2120.49V72.8182H2166.62ZM2405.07 181.909C2405.07 205.702 2400.56 225.943 2391.54 242.634C2382.59 259.324 2370.38 272.072 2354.89 280.879C2339.48 289.615 2322.15 293.983 2302.9 293.983C2283.51 293.983 2266.11 289.58 2250.7 280.773C2235.29 271.966 2223.11 259.217 2214.16 242.527C2205.21 225.837 2200.74 205.631 2200.74 181.909C2200.74 158.116 2205.21 137.875 2214.16 121.185C2223.11 104.494 2235.29 91.7812 2250.7 83.0455C2266.11 74.2386 2283.51 69.8352 2302.9 69.8352C2322.15 69.8352 2339.48 74.2386 2354.89 83.0455C2370.38 91.7812 2382.59 104.494 2391.54 121.185C2400.56 137.875 2405.07 158.116 2405.07 181.909ZM2358.3 181.909C2358.3 166.497 2355.99 153.5 2351.38 142.918C2346.83 132.335 2340.4 124.31 2332.09 118.841C2323.78 113.372 2314.05 110.638 2302.9 110.638C2291.75 110.638 2282.02 113.372 2273.71 118.841C2265.4 124.31 2258.94 132.335 2254.32 142.918C2249.78 153.5 2247.51 166.497 2247.51 181.909C2247.51 197.321 2249.78 210.318 2254.32 220.901C2258.94 231.483 2265.4 239.509 2273.71 244.977C2282.02 250.446 2291.75 253.18 2302.9 253.18C2314.05 253.18 2323.78 250.446 2332.09 244.977C2340.4 239.509 2346.83 231.483 2351.38 220.901C2355.99 210.318 2358.3 197.321 2358.3 181.909ZM2621.73 72.8182V291H2581.89L2486.97 153.678H2485.37V291H2439.24V72.8182H2479.72L2573.9 210.034H2575.82V72.8182H2621.73Z" fill="white" fill-opacity="0.1"/>
</svg>
