<svg width="500" height="500" viewBox="0 0 500 500" fill="none" xmlns="http://www.w3.org/2000/svg">
<path d="M259.911 255.858V250.905H156.974L170.666 269.79C190.026 257.983 209.385 255.858 222.609 255.858H233.234C230.635 306.624 207.5 338.494 168.541 338.494C125.099 338.494 103.14 297.415 103.14 246.655C103.14 197.306 123.208 157.405 159.567 157.405C186.718 157.405 200.416 183.379 205.843 215.254L243.151 204.863C226.859 173.697 199.942 152.447 159.567 152.447C104.791 152.447 60.1715 189.28 60.1715 249.249C60.1715 309.218 99.1298 350.775 156.265 350.775C200.651 350.775 224.026 325.275 233.234 285.608V293.634C233.234 311.343 232.526 326.926 230.161 346.051H243.859C241.494 326.926 240.786 311.343 240.786 293.634V255.858H259.911Z" fill="white"/>
<path d="M402.744 302.134C390.942 273.566 371.583 262.233 348.208 257.983C384.567 255.15 413.135 243.348 413.135 207.931C413.135 165.905 372.999 157.171 327.666 157.171H269.348C271.239 175.113 271.947 185.738 271.947 207.697V295.525C271.947 317.483 271.239 328.108 269.348 346.051H314.208C312.317 328.108 311.609 317.483 311.609 295.525V258.691H316.807C339.234 258.691 348.916 265.306 361.666 303.79C373.708 339.91 400.619 346.051 445.953 346.051V341.566C424.703 341.566 414.552 330.941 402.744 302.134ZM311.609 253.738V162.129H326.958C351.275 162.129 372.76 171.572 372.76 207.931C372.76 244.29 351.275 253.738 326.958 253.738H311.609Z" fill="white"/>
<path d="M26.9011 223.193H472.854V277.193H26.9011V223.193Z" fill="#1CA9C8"/>
<path d="M80.2595 250.812H81.947V255.083C81.3637 255.531 80.6606 255.891 79.8429 256.167C79.0356 256.448 78.2439 256.583 77.4679 256.583C75.7595 256.583 74.3116 256.021 73.1345 254.896C71.9679 253.76 71.3845 252.37 71.3845 250.729C71.3845 249.078 71.9731 247.698 73.1554 246.583C74.3481 245.458 75.822 244.896 77.572 244.896C78.3897 244.896 79.1866 245.042 79.9679 245.333C80.7595 245.625 81.447 246.016 82.0304 246.5L80.9262 247.937C79.9679 247.062 78.8481 246.625 77.572 246.625C76.3897 246.625 75.3897 247.021 74.572 247.812C73.7647 248.604 73.3637 249.573 73.3637 250.708C73.3637 251.875 73.7699 252.854 74.5929 253.646C75.4106 254.437 76.4106 254.833 77.5929 254.833C78.4783 254.833 79.3689 254.573 80.2595 254.042V250.812Z" fill="#E4D8DB"/>
<path d="M105.277 256.5L103.173 253C103.058 253.016 102.881 253.021 102.631 253.021H99.9021V256.5H97.9437V244.938H102.631C104.1 244.938 105.246 245.286 106.069 245.979C106.886 246.661 107.298 247.625 107.298 248.875C107.298 249.807 107.09 250.594 106.673 251.229C106.256 251.87 105.662 252.333 104.902 252.625L107.485 256.5H105.277ZM99.9021 251.271H102.631C104.506 251.271 105.444 250.495 105.444 248.938C105.444 247.438 104.506 246.688 102.631 246.688H99.9021V251.271Z" fill="#E4D8DB"/>
<path d="M125.074 256.5H123.115V244.938H125.074V256.5Z" fill="#E4D8DB"/>
<path d="M141.334 244.938H146.084C147.802 244.938 149.229 245.49 150.354 246.583C151.49 247.667 152.063 249.052 152.063 250.729C152.063 252.396 151.49 253.781 150.354 254.875C149.214 255.958 147.771 256.5 146.021 256.5H141.334V244.938ZM143.292 246.688V254.75H146.125C147.261 254.75 148.209 254.375 148.959 253.625C149.709 252.865 150.084 251.896 150.084 250.729C150.084 249.563 149.693 248.599 148.917 247.833C148.136 247.073 147.177 246.688 146.042 246.688H143.292Z" fill="#E4D8DB"/>
<path d="M192.189 256.5L190.085 253C189.97 253.016 189.793 253.021 189.543 253.021H186.814V256.5H184.856V244.938H189.543C191.012 244.938 192.158 245.286 192.981 245.979C193.798 246.661 194.21 247.625 194.21 248.875C194.21 249.807 194.002 250.594 193.585 251.229C193.168 251.87 192.574 252.333 191.814 252.625L194.397 256.5H192.189ZM186.814 251.271H189.543C191.418 251.271 192.356 250.495 192.356 248.938C192.356 247.438 191.418 246.688 189.543 246.688H186.814V251.271Z" fill="#E4D8DB"/>
<path d="M218.277 246.688H211.986V249.813H217.631V251.563H211.986V254.75H218.486V256.5H210.027V244.938H218.277V246.688Z" fill="#E4D8DB"/>
<path d="M234.092 244.938H238.696C240.155 244.938 241.28 245.286 242.071 245.979C242.873 246.661 243.28 247.625 243.28 248.875C243.28 250.198 242.873 251.219 242.071 251.938C241.28 252.661 240.155 253.021 238.696 253.021H236.05V256.5H234.092V244.938ZM236.05 246.688V251.271H238.613C240.472 251.271 241.405 250.495 241.405 248.938C241.405 247.438 240.472 246.688 238.613 246.688H236.05Z" fill="#E4D8DB"/>
<path d="M268.271 244.938V251.708C268.271 253.224 267.818 254.417 266.917 255.292C266.026 256.156 264.797 256.583 263.23 256.583C261.672 256.583 260.443 256.156 259.542 255.292C258.651 254.417 258.209 253.224 258.209 251.708V244.938H260.146V251.708C260.146 252.682 260.422 253.448 260.98 254C261.547 254.557 262.313 254.833 263.271 254.833C264.214 254.833 264.959 254.563 265.5 254.021C266.042 253.469 266.313 252.698 266.313 251.708V244.938H268.271Z" fill="#E4D8DB"/>
<path d="M292.182 246.688H288.516V256.5H286.557V246.688H282.911V244.938H292.182V246.688Z" fill="#E4D8DB"/>
<path d="M314.538 253.896H308.705L307.601 256.5H305.58L310.684 244.938H312.684L317.726 256.5H315.663L314.538 253.896ZM313.809 252.146L311.621 247.021L309.434 252.146H313.809Z" fill="#E4D8DB"/>
<path d="M340.395 246.688H336.728V256.5H334.77V246.688H331.124V244.938H340.395V246.688Z" fill="#E4D8DB"/>
<path d="M357.251 256.5H355.292V244.938H357.251V256.5Z" fill="#E4D8DB"/>
<path d="M374.323 246.583C375.5 245.458 376.953 244.896 378.677 244.896C380.412 244.896 381.865 245.458 383.032 246.583C384.209 247.698 384.802 249.078 384.802 250.729C384.802 252.37 384.209 253.76 383.032 254.896C381.865 256.021 380.412 256.583 378.677 256.583C376.953 256.583 375.5 256.021 374.323 254.896C373.141 253.76 372.552 252.37 372.552 250.729C372.552 249.078 373.141 247.698 374.323 246.583ZM378.698 246.646C377.542 246.646 376.558 247.042 375.74 247.833C374.933 248.615 374.532 249.578 374.532 250.729C374.532 251.87 374.938 252.844 375.761 253.646C376.578 254.437 377.558 254.833 378.698 254.833C379.834 254.833 380.802 254.437 381.594 253.646C382.396 252.844 382.802 251.87 382.802 250.729C382.802 249.578 382.396 248.615 381.594 247.833C380.802 247.042 379.834 246.646 378.698 246.646Z" fill="#E4D8DB"/>
<path d="M410.14 256.5H408.223L402.077 248.208V256.5H400.119V244.938H402.036L408.223 253.25V244.938H410.14V256.5Z" fill="#E4D8DB"/>
</svg>
